<svg
  width="355.23819pt"
  height="373.34714pt"
  viewBox="0 0 355.23819 373.34714"
  xmlns="http://www.w3.org/2000/svg"
>
  <path
    d="m 115.97999,0.00992095 c -6.0625,0.18359 -11.816,2.71480005 -16.042997,7.06640005 L 6.832,100.18132 c -4.375,4.375 -6.832,10.309 -6.832,16.496 0,6.187 2.457,12.121 6.832,16.496 l 93.104993,93.105 c 4.343797,4.5234 10.323997,7.1055 16.593997,7.168 6.2695,0.0664 12.301,-2.3984 16.734,-6.832 4.4336,-4.4336 6.8984,-10.465 6.8359,-16.734 -0.0625,-6.269 -2.6484,-12.25 -7.168,-16.594 l -53.272997,-53.273 H 214.78819 c 52.43,0 93.789,41.281 93.789,93.332 0,52.055 -41.359,93.332 -93.789,93.332 H 75.238193 c -6.2461,-0.0898 -12.266,2.332 -16.715,6.7148 -4.4453,4.3867 -6.9492,10.371 -6.9492,16.617 0,6.2461 2.5039,12.234 6.9492,16.617 4.4492,4.3867 10.469,6.8047 16.715,6.7188 H 214.77819 c 77.371,0 140.46,-62.797 140.46,-140 0,-77.207 -63.086,-139.999999 -140.46,-139.999999 H 79.649893 l 53.276997,-53.277 c 4.5195,-4.3945 7.0703,-10.434 7.0703,-16.742 -0.004,-6.3047 -2.5586,-12.344 -7.0859,-16.734 -4.5234,-4.3945 -10.637,-6.76560005 -16.938,-6.58200005 z" fill="#000" />
</svg>
